:SAMPLES-PER-SECOND 30
:FULLY-SPECIFIED
:DEGREES
83
root  8.4803 38.9962 0.634347 84.3386 -84.7521 -89.7378
RightUpLeg  -14.7801 -10.5807 6.96591
RightLeg  24.4901 -3.4615 -1.61875
RightFoot  -4.64913 0.280666 -5.32577
RightToes  1.74622e-010 0 -3.6325e-017
Spine  2.39514 -2.92011 11.4584
Spine1  12.5597 -2.678 2.16706
HEad  4.62779 1.03158 -3.37763
LeftShoulder1  9.31553 -12.6397 -50.3705
LeftArm  0.78723 11.5121 -28.083
LeftForeArm  19.8599 -19.0771 -4.54467
LeftHand  -0.244104 0.0205437 5.32207
RightShoulder  6.91575 10.2883 43.7383
RightArm  -2.99737 -8.77959 28.9012
RightForeArm  4.80086 9.81319 7.81709
RightHand  -1.24916 3.13612 -17.1374
LeftUpLeg  -5.79787 1.2763 6.3175
LeftLeg  63.4906 3.05466 7.23896
LeftFoot  10.2784 0.716489 -4.07464
LeftToes  -1.18267e-011 5.39559e-011 -6.19194e-012
84
root  6.87994 39.4159 0.46209 95.2323 -85.7437 -100.723
RightUpLeg  -10.7022 -10.2254 5.27787
RightLeg  22.4697 -3.15569 -0.558439
RightFoot  -6.3487 0.184713 -5.20884
RightToes  1.74622e-010 0 -3.6325e-017
Spine  2.4107 -1.78212 11.0007
Spine1  12.3586 -1.2814 1.28767
HEad  4.91381 0.105571 -3.19879
LeftShoulder1  9.3384 -12.6416 -50.4863
LeftArm  -1.69741 13.3143 -28.5374
LeftForeArm  24.9547 -14.2453 -6.05095
LeftHand  -0.244104 0.0205437 5.32207
RightShoulder  6.94759 10.4043 43.5645
RightArm  2.06032 -5.31006 29.1648
RightForeArm  1.60146 13.0134 7.78824
RightHand  -1.26719 3.15968 -17.3307
LeftUpLeg  -10.8639 1.6367 5.10677
LeftLeg  64.1749 3.40273 8.28002
LeftFoot  5.73669 0.437373 -3.16703
LeftToes  -1.18267e-011 5.39559e-011 -6.19194e-012
85
root  5.31155 39.7176 0.305242 112.41 -86.3754 -117.925
RightUpLeg  -6.88379 -9.60554 3.55546
RightLeg  20.6082 -2.96337 0.682548
RightFoot  -7.96004 0.0966862 -5.10444
RightToes  1.74622e-010 0 -3.6325e-017
Spine  2.53481 -0.849433 10.611
Spine1  11.9994 -0.0974386 0.464595
HEad  5.03464 -0.164875 -3.26337
LeftShoulder1  9.31935 -12.6615 -50.3234
LeftArm  -4.01754 15.9894 -28.9017
LeftForeArm  28.7467 -10.8263 -6.74525
LeftHand  -0.244104 0.0205437 5.32207
RightShoulder  6.89962 10.4626 43.0545
RightArm  7.83542 -1.96599 29.791
RightForeArm  -2.33054 16.8538 6.8361
RightHand  -1.22883 2.90834 -17.3078
LeftUpLeg  -15.2098 1.9593 3.96168
LeftLeg  61.6071 3.40743 7.4235
LeftFoot  2.73566 0.341833 -2.90257
LeftToes  -1.18267e-011 5.39559e-011 -6.19194e-012
86
root  3.75031 39.9579 0.168914 132.009 -86.4168 -137.519
RightUpLeg  -3.14503 -8.92945 2.01404
RightLeg  18.5604 -2.55915 1.92061
RightFoot  -9.39896 0.024621 -5.19065
RightToes  1.74622e-010 0 -3.6325e-017
Spine  2.61823 -0.0716552 10.3911
Spine1  11.6224 0.909192 -0.566444
HEad  4.95166 -0.200056 -3.44704
LeftShoulder1  9.35388 -12.7537 -50.2248
LeftArm  -4.83789 19.0946 -28.94
LeftForeArm  30.0736 -8.82418 -6.91057
LeftHand  -0.244104 0.0205437 5.32207
RightShoulder  6.77189 10.3544 42.5587
RightArm  11.93 1.14183 30.3234
RightForeArm  -5.72927 21.1126 5.59708
RightHand  -1.1565 2.48122 -17.1641
LeftUpLeg  -18.6364 2.44395 2.92701
LeftLeg  56.1882 3.48064 6.08862
LeftFoot  0.741123 0.278838 -2.6835
LeftToes  -1.18267e-011 5.39559e-011 -6.19194e-012
87
root  2.20403 40.0875 0.0548917 150.295 -85.7749 -155.764
RightUpLeg  0.324855 -8.52972 0.729565
RightLeg  16.7678 -1.50516 2.81638
RightFoot  -11.0357 -0.0604069 -5.04048
RightToes  1.74622e-010 0 -3.6325e-017
Spine  2.61489 0.621315 10.3249
Spine1  11.4725 1.83793 -1.83352
HEad  4.63684 -0.0146752 -3.71537
LeftShoulder1  9.39686 -12.803 -50.3026
LeftArm  -4.77976 22.2311 -28.6185
LeftForeArm  30.2504 -8.04391 -6.94631
LeftHand  -0.244104 0.0205437 5.32207
RightShoulder  6.68965 10.2404 42.3793
RightArm  11.906 4.23926 30.4097
RightForeArm  -6.09725 25.0142 5.57959
RightHand  -1.0906 2.08881 -17.026
LeftUpLeg  -20.9117 3.77502 2.09611
LeftLeg  48.0414 3.78551 4.91524
LeftFoot  -0.475367 0.296347 -3.08723
LeftToes  -1.18267e-011 5.39559e-011 -6.19194e-012
88
root  0.645226 40.0674 -0.0317757 159.034 -84.8143 -164.343
RightUpLeg  3.38291 -8.47689 -0.228904
RightLeg  15.6189 -0.252241 3.41123
RightFoot  -12.8796 -0.15036 -4.69273
RightToes  1.74622e-010 0 -3.6325e-017
Spine  2.28077 1.05583 10.6162
Spine1  11.7245 2.50058 -3.13135
HEad  4.05778 0.484247 -4.0125
LeftShoulder1  9.3905 -12.7675 -50.3773
LeftArm  -4.40609 25.2071 -28.2324
LeftForeArm  30.19 -8.12086 -6.9826
LeftHand  -0.244104 0.0205437 5.32207
RightShoulder  6.67092 10.2315 42.2818
RightArm  10.1109 7.30299 30.5642
RightForeArm  -4.91012 28.2561 6.36883
RightHand  -1.07259 2.00509 -16.9344
LeftUpLeg  -22.0033 5.67046 1.54726
LeftLeg  37.5326 4.06478 3.69806
LeftFoot  -0.447493 0.388913 -4.04386
LeftToes  -1.18267e-011 5.39559e-011 -6.19194e-012
